<svg width="1251" height="306" viewBox="0 0 1251 306" fill="none" xmlns="http://www.w3.org/2000/svg">
<path d="M168.31 97.2585C167.533 87.5521 163.894 79.9811 157.39 74.5455C150.984 69.1099 141.229 66.3921 128.125 66.3921C119.778 66.3921 112.935 67.4112 107.596 69.4496C102.355 71.3909 98.4721 74.0601 95.9484 77.4574C93.4248 80.8547 92.1144 84.7372 92.0173 89.1051C91.8232 92.6965 92.4541 95.9482 93.9101 98.8601C95.4631 101.675 97.8897 104.247 101.19 106.577C104.49 108.809 108.712 110.848 113.857 112.692C119.001 114.536 125.116 116.186 132.202 117.642L156.662 122.884C173.163 126.378 187.286 130.988 199.031 136.715C210.776 142.442 220.385 149.188 227.859 156.953C235.333 164.621 240.817 173.26 244.311 182.869C247.903 192.479 249.747 202.962 249.844 214.318C249.747 233.925 244.845 250.523 235.139 264.112C225.432 277.701 211.552 288.039 193.498 295.124C175.541 302.21 153.944 305.753 128.708 305.753C102.791 305.753 80.1755 301.919 60.8596 294.251C41.6409 286.583 26.693 274.789 16.0159 258.871C5.43587 242.855 0.097331 222.375 0.000266682 197.429H76.8753C77.3606 206.553 79.6416 214.221 83.7183 220.433C87.795 226.645 93.5218 231.353 100.899 234.556C108.373 237.759 117.254 239.361 127.543 239.361C136.182 239.361 143.413 238.293 149.237 236.158C155.061 234.022 159.477 231.062 162.486 227.276C165.495 223.491 167.048 219.171 167.145 214.318C167.048 209.756 165.544 205.777 162.632 202.379C159.817 198.885 155.158 195.779 148.654 193.061C142.151 190.246 133.367 187.625 122.301 185.199L92.5997 178.793C66.1982 173.066 45.3779 163.505 30.1388 150.11C14.9967 136.618 7.47422 118.224 7.57129 94.929C7.47422 76.0014 12.5216 59.452 22.7133 45.2806C33.0022 31.0121 47.2221 19.8982 65.3731 11.9389C83.6212 3.97965 104.539 1.10865e-05 128.125 1.10865e-05C152.197 1.10865e-05 173.018 4.02818 190.586 12.0845C208.155 20.1409 221.695 31.4974 231.208 46.1541C240.817 60.7138 245.67 77.7486 245.767 97.2585H168.31ZM280.638 302.259V4.07672H361.589V124.631H365.666L455.354 4.07672H549.7L448.947 136.861L552.03 302.259H455.354L388.379 190.44L361.589 225.384V302.259H280.638ZM561.494 4.07672H651.763L710.002 125.213H712.332L770.57 4.07672H860.84L751.351 208.494V302.259H670.982V208.494L561.494 4.07672ZM1055.68 4.07672L1104.61 90.8523H1106.93L1156.44 4.07672H1246.71L1157.6 153.168L1250.2 302.259H1157.6L1106.93 213.736H1104.61L1053.94 302.259H961.921L1053.36 153.168L964.832 4.07672H1055.68Z" fill="url(#paint0_linear_118_86)"/>
<defs>
<linearGradient id="paint0_linear_118_86" x1="625.853" y1="-94.7415" x2="625.853" y2="301.259" gradientUnits="userSpaceOnUse">
<stop offset="0.144231" stop-color="#C0C0C0" stop-opacity="0.56"/>
<stop offset="0.663462" stop-color="white"/>
</linearGradient>
</defs>
</svg>
